<mxfile host="app.diagrams.net" modified="2022-03-20T16:15:56.487Z" agent="5.0 (Windows NT 10.0; Win64; x64) AppleWebKit/537.36 (KHTML, like Gecko) Chrome/99.0.4844.74 Safari/537.36" etag="sWWmvugd0X2thl6pGzI7" version="16.6.6" type="github">
  <diagram id="K281O8RMsJ9H3B6lh5Bv" name="Page-1">
    <mxGraphModel dx="1504" dy="1734" grid="1" gridSize="10" guides="1" tooltips="1" connect="1" arrows="1" fold="1" page="1" pageScale="1" pageWidth="850" pageHeight="1100" math="0" shadow="0">
      <root>
        <mxCell id="0" />
        <mxCell id="1" parent="0" />
        <mxCell id="AjT2clhLz14M1lo0pNQs-20" style="edgeStyle=orthogonalEdgeStyle;rounded=0;orthogonalLoop=1;jettySize=auto;html=1;exitX=0.25;exitY=0;exitDx=0;exitDy=0;entryX=0.25;entryY=1;entryDx=0;entryDy=0;" edge="1" parent="1" source="AjT2clhLz14M1lo0pNQs-1" target="AjT2clhLz14M1lo0pNQs-2">
          <mxGeometry relative="1" as="geometry" />
        </mxCell>
        <mxCell id="AjT2clhLz14M1lo0pNQs-1" value="Landing Screen" style="rounded=1;whiteSpace=wrap;html=1;" vertex="1" parent="1">
          <mxGeometry x="360" y="290" width="120" height="60" as="geometry" />
        </mxCell>
        <mxCell id="AjT2clhLz14M1lo0pNQs-18" style="edgeStyle=orthogonalEdgeStyle;rounded=0;orthogonalLoop=1;jettySize=auto;html=1;exitX=0.5;exitY=0;exitDx=0;exitDy=0;entryX=0.5;entryY=1;entryDx=0;entryDy=0;" edge="1" parent="1" source="AjT2clhLz14M1lo0pNQs-2" target="AjT2clhLz14M1lo0pNQs-3">
          <mxGeometry relative="1" as="geometry" />
        </mxCell>
        <mxCell id="AjT2clhLz14M1lo0pNQs-21" style="edgeStyle=orthogonalEdgeStyle;rounded=0;orthogonalLoop=1;jettySize=auto;html=1;exitX=0.75;exitY=1;exitDx=0;exitDy=0;entryX=0.75;entryY=0;entryDx=0;entryDy=0;" edge="1" parent="1" source="AjT2clhLz14M1lo0pNQs-2" target="AjT2clhLz14M1lo0pNQs-1">
          <mxGeometry relative="1" as="geometry" />
        </mxCell>
        <mxCell id="AjT2clhLz14M1lo0pNQs-2" value="Login/Signup Screen" style="rounded=1;whiteSpace=wrap;html=1;" vertex="1" parent="1">
          <mxGeometry x="360" y="210" width="120" height="60" as="geometry" />
        </mxCell>
        <mxCell id="AjT2clhLz14M1lo0pNQs-13" style="edgeStyle=orthogonalEdgeStyle;rounded=0;orthogonalLoop=1;jettySize=auto;html=1;exitX=0.25;exitY=0;exitDx=0;exitDy=0;entryX=0.25;entryY=1;entryDx=0;entryDy=0;" edge="1" parent="1" source="AjT2clhLz14M1lo0pNQs-3" target="AjT2clhLz14M1lo0pNQs-4">
          <mxGeometry relative="1" as="geometry" />
        </mxCell>
        <mxCell id="AjT2clhLz14M1lo0pNQs-17" style="edgeStyle=orthogonalEdgeStyle;rounded=0;orthogonalLoop=1;jettySize=auto;html=1;exitX=1;exitY=0.5;exitDx=0;exitDy=0;entryX=0;entryY=0.5;entryDx=0;entryDy=0;" edge="1" parent="1" source="AjT2clhLz14M1lo0pNQs-3" target="AjT2clhLz14M1lo0pNQs-16">
          <mxGeometry relative="1" as="geometry" />
        </mxCell>
        <mxCell id="AjT2clhLz14M1lo0pNQs-23" style="edgeStyle=orthogonalEdgeStyle;rounded=0;orthogonalLoop=1;jettySize=auto;html=1;exitX=0;exitY=0.25;exitDx=0;exitDy=0;entryX=1;entryY=0.25;entryDx=0;entryDy=0;" edge="1" parent="1" source="AjT2clhLz14M1lo0pNQs-3" target="AjT2clhLz14M1lo0pNQs-22">
          <mxGeometry relative="1" as="geometry" />
        </mxCell>
        <mxCell id="AjT2clhLz14M1lo0pNQs-3" value="Homepage Screen" style="rounded=1;whiteSpace=wrap;html=1;" vertex="1" parent="1">
          <mxGeometry x="360" y="130" width="120" height="60" as="geometry" />
        </mxCell>
        <mxCell id="AjT2clhLz14M1lo0pNQs-11" style="edgeStyle=orthogonalEdgeStyle;rounded=0;orthogonalLoop=1;jettySize=auto;html=1;exitX=0.25;exitY=0;exitDx=0;exitDy=0;entryX=0.25;entryY=1;entryDx=0;entryDy=0;" edge="1" parent="1" source="AjT2clhLz14M1lo0pNQs-4" target="AjT2clhLz14M1lo0pNQs-5">
          <mxGeometry relative="1" as="geometry" />
        </mxCell>
        <mxCell id="AjT2clhLz14M1lo0pNQs-14" style="edgeStyle=orthogonalEdgeStyle;rounded=0;orthogonalLoop=1;jettySize=auto;html=1;exitX=0.75;exitY=1;exitDx=0;exitDy=0;entryX=0.75;entryY=0;entryDx=0;entryDy=0;" edge="1" parent="1" source="AjT2clhLz14M1lo0pNQs-4" target="AjT2clhLz14M1lo0pNQs-3">
          <mxGeometry relative="1" as="geometry" />
        </mxCell>
        <mxCell id="AjT2clhLz14M1lo0pNQs-4" value="Category-Filtered Businesses Screen" style="rounded=1;whiteSpace=wrap;html=1;" vertex="1" parent="1">
          <mxGeometry x="360" y="50" width="120" height="60" as="geometry" />
        </mxCell>
        <mxCell id="AjT2clhLz14M1lo0pNQs-9" style="edgeStyle=orthogonalEdgeStyle;rounded=0;orthogonalLoop=1;jettySize=auto;html=1;exitX=0.25;exitY=0;exitDx=0;exitDy=0;entryX=0.25;entryY=1;entryDx=0;entryDy=0;" edge="1" parent="1" source="AjT2clhLz14M1lo0pNQs-5" target="AjT2clhLz14M1lo0pNQs-6">
          <mxGeometry relative="1" as="geometry" />
        </mxCell>
        <mxCell id="AjT2clhLz14M1lo0pNQs-12" style="edgeStyle=orthogonalEdgeStyle;rounded=0;orthogonalLoop=1;jettySize=auto;html=1;exitX=0.75;exitY=1;exitDx=0;exitDy=0;entryX=0.75;entryY=0;entryDx=0;entryDy=0;" edge="1" parent="1" source="AjT2clhLz14M1lo0pNQs-5" target="AjT2clhLz14M1lo0pNQs-4">
          <mxGeometry relative="1" as="geometry" />
        </mxCell>
        <mxCell id="AjT2clhLz14M1lo0pNQs-5" value="Business Details Screens" style="rounded=1;whiteSpace=wrap;html=1;" vertex="1" parent="1">
          <mxGeometry x="360" y="-30" width="120" height="60" as="geometry" />
        </mxCell>
        <mxCell id="AjT2clhLz14M1lo0pNQs-8" style="edgeStyle=orthogonalEdgeStyle;rounded=0;orthogonalLoop=1;jettySize=auto;html=1;exitX=0;exitY=0.5;exitDx=0;exitDy=0;entryX=1;entryY=0.5;entryDx=0;entryDy=0;" edge="1" parent="1" source="AjT2clhLz14M1lo0pNQs-6" target="AjT2clhLz14M1lo0pNQs-7">
          <mxGeometry relative="1" as="geometry" />
        </mxCell>
        <mxCell id="AjT2clhLz14M1lo0pNQs-10" style="edgeStyle=orthogonalEdgeStyle;rounded=0;orthogonalLoop=1;jettySize=auto;html=1;exitX=0.75;exitY=1;exitDx=0;exitDy=0;entryX=0.75;entryY=0;entryDx=0;entryDy=0;" edge="1" parent="1" source="AjT2clhLz14M1lo0pNQs-6" target="AjT2clhLz14M1lo0pNQs-5">
          <mxGeometry relative="1" as="geometry" />
        </mxCell>
        <mxCell id="AjT2clhLz14M1lo0pNQs-6" value="Product Details Screen" style="rounded=1;whiteSpace=wrap;html=1;" vertex="1" parent="1">
          <mxGeometry x="360" y="-110" width="120" height="60" as="geometry" />
        </mxCell>
        <mxCell id="AjT2clhLz14M1lo0pNQs-7" value="Add to Cart" style="ellipse;whiteSpace=wrap;html=1;" vertex="1" parent="1">
          <mxGeometry x="240" y="-110" width="90" height="60" as="geometry" />
        </mxCell>
        <mxCell id="AjT2clhLz14M1lo0pNQs-19" style="edgeStyle=orthogonalEdgeStyle;rounded=0;orthogonalLoop=1;jettySize=auto;html=1;exitX=0.5;exitY=1;exitDx=0;exitDy=0;entryX=1;entryY=0.5;entryDx=0;entryDy=0;" edge="1" parent="1" source="AjT2clhLz14M1lo0pNQs-16" target="AjT2clhLz14M1lo0pNQs-1">
          <mxGeometry relative="1" as="geometry" />
        </mxCell>
        <mxCell id="AjT2clhLz14M1lo0pNQs-16" value="Logout" style="ellipse;whiteSpace=wrap;html=1;" vertex="1" parent="1">
          <mxGeometry x="500" y="130" width="90" height="60" as="geometry" />
        </mxCell>
        <mxCell id="AjT2clhLz14M1lo0pNQs-24" style="edgeStyle=orthogonalEdgeStyle;rounded=0;orthogonalLoop=1;jettySize=auto;html=1;exitX=1;exitY=0.75;exitDx=0;exitDy=0;entryX=0;entryY=0.75;entryDx=0;entryDy=0;" edge="1" parent="1" source="AjT2clhLz14M1lo0pNQs-22" target="AjT2clhLz14M1lo0pNQs-3">
          <mxGeometry relative="1" as="geometry" />
        </mxCell>
        <mxCell id="AjT2clhLz14M1lo0pNQs-26" style="edgeStyle=orthogonalEdgeStyle;rounded=0;orthogonalLoop=1;jettySize=auto;html=1;exitX=0;exitY=0.5;exitDx=0;exitDy=0;" edge="1" parent="1" source="AjT2clhLz14M1lo0pNQs-22" target="AjT2clhLz14M1lo0pNQs-25">
          <mxGeometry relative="1" as="geometry" />
        </mxCell>
        <mxCell id="AjT2clhLz14M1lo0pNQs-22" value="My Cart" style="rounded=1;whiteSpace=wrap;html=1;" vertex="1" parent="1">
          <mxGeometry x="225" y="130" width="120" height="60" as="geometry" />
        </mxCell>
        <mxCell id="AjT2clhLz14M1lo0pNQs-25" value="Place Order" style="ellipse;whiteSpace=wrap;html=1;" vertex="1" parent="1">
          <mxGeometry x="120" y="130" width="90" height="60" as="geometry" />
        </mxCell>
        <mxCell id="AjT2clhLz14M1lo0pNQs-27" style="edgeStyle=orthogonalEdgeStyle;rounded=0;orthogonalLoop=1;jettySize=auto;html=1;exitX=0.25;exitY=0;exitDx=0;exitDy=0;entryX=0.25;entryY=1;entryDx=0;entryDy=0;" edge="1" parent="1" source="AjT2clhLz14M1lo0pNQs-28" target="AjT2clhLz14M1lo0pNQs-31">
          <mxGeometry relative="1" as="geometry" />
        </mxCell>
        <mxCell id="AjT2clhLz14M1lo0pNQs-28" value="Landing Screen" style="rounded=1;whiteSpace=wrap;html=1;" vertex="1" parent="1">
          <mxGeometry x="880" y="300" width="120" height="60" as="geometry" />
        </mxCell>
        <mxCell id="AjT2clhLz14M1lo0pNQs-29" style="edgeStyle=orthogonalEdgeStyle;rounded=0;orthogonalLoop=1;jettySize=auto;html=1;exitX=0.5;exitY=0;exitDx=0;exitDy=0;entryX=0.5;entryY=1;entryDx=0;entryDy=0;" edge="1" parent="1" source="AjT2clhLz14M1lo0pNQs-31" target="AjT2clhLz14M1lo0pNQs-35">
          <mxGeometry relative="1" as="geometry" />
        </mxCell>
        <mxCell id="AjT2clhLz14M1lo0pNQs-30" style="edgeStyle=orthogonalEdgeStyle;rounded=0;orthogonalLoop=1;jettySize=auto;html=1;exitX=0.75;exitY=1;exitDx=0;exitDy=0;entryX=0.75;entryY=0;entryDx=0;entryDy=0;" edge="1" parent="1" source="AjT2clhLz14M1lo0pNQs-31" target="AjT2clhLz14M1lo0pNQs-28">
          <mxGeometry relative="1" as="geometry" />
        </mxCell>
        <mxCell id="AjT2clhLz14M1lo0pNQs-31" value="Login/Signup Screen" style="rounded=1;whiteSpace=wrap;html=1;" vertex="1" parent="1">
          <mxGeometry x="880" y="220" width="120" height="60" as="geometry" />
        </mxCell>
        <mxCell id="AjT2clhLz14M1lo0pNQs-32" style="edgeStyle=orthogonalEdgeStyle;rounded=0;orthogonalLoop=1;jettySize=auto;html=1;exitX=0.25;exitY=0;exitDx=0;exitDy=0;entryX=0.25;entryY=1;entryDx=0;entryDy=0;" edge="1" parent="1" source="AjT2clhLz14M1lo0pNQs-35" target="AjT2clhLz14M1lo0pNQs-38">
          <mxGeometry relative="1" as="geometry" />
        </mxCell>
        <mxCell id="AjT2clhLz14M1lo0pNQs-33" style="edgeStyle=orthogonalEdgeStyle;rounded=0;orthogonalLoop=1;jettySize=auto;html=1;exitX=1;exitY=0.5;exitDx=0;exitDy=0;entryX=0;entryY=0.5;entryDx=0;entryDy=0;" edge="1" parent="1" source="AjT2clhLz14M1lo0pNQs-35" target="AjT2clhLz14M1lo0pNQs-47">
          <mxGeometry relative="1" as="geometry" />
        </mxCell>
        <mxCell id="AjT2clhLz14M1lo0pNQs-34" style="edgeStyle=orthogonalEdgeStyle;rounded=0;orthogonalLoop=1;jettySize=auto;html=1;exitX=0;exitY=0.25;exitDx=0;exitDy=0;entryX=1;entryY=0.25;entryDx=0;entryDy=0;" edge="1" parent="1" source="AjT2clhLz14M1lo0pNQs-35" target="AjT2clhLz14M1lo0pNQs-50">
          <mxGeometry relative="1" as="geometry" />
        </mxCell>
        <mxCell id="AjT2clhLz14M1lo0pNQs-35" value="Homepage Screen" style="rounded=1;whiteSpace=wrap;html=1;" vertex="1" parent="1">
          <mxGeometry x="880" y="140" width="120" height="60" as="geometry" />
        </mxCell>
        <mxCell id="AjT2clhLz14M1lo0pNQs-37" style="edgeStyle=orthogonalEdgeStyle;rounded=0;orthogonalLoop=1;jettySize=auto;html=1;exitX=0.75;exitY=1;exitDx=0;exitDy=0;entryX=0.75;entryY=0;entryDx=0;entryDy=0;" edge="1" parent="1" source="AjT2clhLz14M1lo0pNQs-38" target="AjT2clhLz14M1lo0pNQs-35">
          <mxGeometry relative="1" as="geometry" />
        </mxCell>
        <mxCell id="AjT2clhLz14M1lo0pNQs-54" style="edgeStyle=orthogonalEdgeStyle;rounded=0;orthogonalLoop=1;jettySize=auto;html=1;exitX=0.5;exitY=0;exitDx=0;exitDy=0;entryX=0.5;entryY=1;entryDx=0;entryDy=0;" edge="1" parent="1" source="AjT2clhLz14M1lo0pNQs-38" target="AjT2clhLz14M1lo0pNQs-53">
          <mxGeometry relative="1" as="geometry" />
        </mxCell>
        <mxCell id="AjT2clhLz14M1lo0pNQs-38" value="My Orders Screen" style="rounded=1;whiteSpace=wrap;html=1;" vertex="1" parent="1">
          <mxGeometry x="880" y="60" width="120" height="60" as="geometry" />
        </mxCell>
        <mxCell id="AjT2clhLz14M1lo0pNQs-46" style="edgeStyle=orthogonalEdgeStyle;rounded=0;orthogonalLoop=1;jettySize=auto;html=1;exitX=0.5;exitY=1;exitDx=0;exitDy=0;entryX=1;entryY=0.5;entryDx=0;entryDy=0;" edge="1" parent="1" source="AjT2clhLz14M1lo0pNQs-47" target="AjT2clhLz14M1lo0pNQs-28">
          <mxGeometry relative="1" as="geometry" />
        </mxCell>
        <mxCell id="AjT2clhLz14M1lo0pNQs-47" value="Logout" style="ellipse;whiteSpace=wrap;html=1;" vertex="1" parent="1">
          <mxGeometry x="1020" y="140" width="90" height="60" as="geometry" />
        </mxCell>
        <mxCell id="AjT2clhLz14M1lo0pNQs-48" style="edgeStyle=orthogonalEdgeStyle;rounded=0;orthogonalLoop=1;jettySize=auto;html=1;exitX=1;exitY=0.75;exitDx=0;exitDy=0;entryX=0;entryY=0.75;entryDx=0;entryDy=0;" edge="1" parent="1" source="AjT2clhLz14M1lo0pNQs-50" target="AjT2clhLz14M1lo0pNQs-35">
          <mxGeometry relative="1" as="geometry" />
        </mxCell>
        <mxCell id="AjT2clhLz14M1lo0pNQs-49" style="edgeStyle=orthogonalEdgeStyle;rounded=0;orthogonalLoop=1;jettySize=auto;html=1;exitX=0;exitY=0.5;exitDx=0;exitDy=0;" edge="1" parent="1" source="AjT2clhLz14M1lo0pNQs-50" target="AjT2clhLz14M1lo0pNQs-51">
          <mxGeometry relative="1" as="geometry" />
        </mxCell>
        <mxCell id="AjT2clhLz14M1lo0pNQs-50" value="Add Product Screen" style="rounded=1;whiteSpace=wrap;html=1;" vertex="1" parent="1">
          <mxGeometry x="745" y="140" width="120" height="60" as="geometry" />
        </mxCell>
        <mxCell id="AjT2clhLz14M1lo0pNQs-51" value="Add Product" style="ellipse;whiteSpace=wrap;html=1;" vertex="1" parent="1">
          <mxGeometry x="640" y="140" width="90" height="60" as="geometry" />
        </mxCell>
        <mxCell id="AjT2clhLz14M1lo0pNQs-53" value="Update Order Status" style="ellipse;whiteSpace=wrap;html=1;" vertex="1" parent="1">
          <mxGeometry x="895" y="-20" width="90" height="60" as="geometry" />
        </mxCell>
        <mxCell id="AjT2clhLz14M1lo0pNQs-55" value="Edit Business Details" style="ellipse;whiteSpace=wrap;html=1;" vertex="1" parent="1">
          <mxGeometry x="770" y="220" width="90" height="60" as="geometry" />
        </mxCell>
        <mxCell id="AjT2clhLz14M1lo0pNQs-56" value="" style="endArrow=classic;html=1;rounded=0;exitX=0;exitY=1;exitDx=0;exitDy=0;entryX=1;entryY=0;entryDx=0;entryDy=0;" edge="1" parent="1" source="AjT2clhLz14M1lo0pNQs-35" target="AjT2clhLz14M1lo0pNQs-55">
          <mxGeometry width="50" height="50" relative="1" as="geometry">
            <mxPoint x="950" y="160" as="sourcePoint" />
            <mxPoint x="1000" y="110" as="targetPoint" />
          </mxGeometry>
        </mxCell>
        <mxCell id="AjT2clhLz14M1lo0pNQs-60" style="edgeStyle=orthogonalEdgeStyle;rounded=0;orthogonalLoop=1;jettySize=auto;html=1;exitX=0.5;exitY=1;exitDx=0;exitDy=0;entryX=0.5;entryY=0;entryDx=0;entryDy=0;" edge="1" parent="1" source="AjT2clhLz14M1lo0pNQs-57" target="AjT2clhLz14M1lo0pNQs-59">
          <mxGeometry relative="1" as="geometry" />
        </mxCell>
        <mxCell id="AjT2clhLz14M1lo0pNQs-57" value="Landing Screen" style="rounded=1;whiteSpace=wrap;html=1;" vertex="1" parent="1">
          <mxGeometry x="1460" y="-10" width="120" height="60" as="geometry" />
        </mxCell>
        <mxCell id="AjT2clhLz14M1lo0pNQs-59" value="Login/Signup&lt;br&gt;Screen" style="rounded=1;whiteSpace=wrap;html=1;" vertex="1" parent="1">
          <mxGeometry x="1460" y="70" width="120" height="60" as="geometry" />
        </mxCell>
        <mxCell id="AjT2clhLz14M1lo0pNQs-62" value="" style="endArrow=none;html=1;rounded=0;entryX=0.5;entryY=1;entryDx=0;entryDy=0;" edge="1" parent="1" target="AjT2clhLz14M1lo0pNQs-59">
          <mxGeometry width="50" height="50" relative="1" as="geometry">
            <mxPoint x="1520" y="160" as="sourcePoint" />
            <mxPoint x="1520" y="120" as="targetPoint" />
          </mxGeometry>
        </mxCell>
        <mxCell id="AjT2clhLz14M1lo0pNQs-63" value="" style="endArrow=none;html=1;rounded=0;" edge="1" parent="1">
          <mxGeometry width="50" height="50" relative="1" as="geometry">
            <mxPoint x="1440" y="160" as="sourcePoint" />
            <mxPoint x="1600" y="160" as="targetPoint" />
          </mxGeometry>
        </mxCell>
        <mxCell id="AjT2clhLz14M1lo0pNQs-64" value="as customer" style="text;html=1;strokeColor=none;fillColor=none;align=center;verticalAlign=middle;whiteSpace=wrap;rounded=0;" vertex="1" parent="1">
          <mxGeometry x="1420" y="130" width="100" height="30" as="geometry" />
        </mxCell>
        <mxCell id="AjT2clhLz14M1lo0pNQs-65" value="as business" style="text;html=1;strokeColor=none;fillColor=none;align=center;verticalAlign=middle;whiteSpace=wrap;rounded=0;" vertex="1" parent="1">
          <mxGeometry x="1530" y="130" width="100" height="30" as="geometry" />
        </mxCell>
        <mxCell id="AjT2clhLz14M1lo0pNQs-67" value="" style="endArrow=classic;html=1;rounded=0;" edge="1" parent="1">
          <mxGeometry width="50" height="50" relative="1" as="geometry">
            <mxPoint x="1441" y="160" as="sourcePoint" />
            <mxPoint x="1441" y="190" as="targetPoint" />
          </mxGeometry>
        </mxCell>
        <mxCell id="AjT2clhLz14M1lo0pNQs-68" value="" style="endArrow=classic;html=1;rounded=0;" edge="1" parent="1">
          <mxGeometry width="50" height="50" relative="1" as="geometry">
            <mxPoint x="1600" y="160" as="sourcePoint" />
            <mxPoint x="1600" y="190" as="targetPoint" />
          </mxGeometry>
        </mxCell>
        <mxCell id="AjT2clhLz14M1lo0pNQs-76" style="edgeStyle=orthogonalEdgeStyle;rounded=0;orthogonalLoop=1;jettySize=auto;html=1;exitX=0.5;exitY=1;exitDx=0;exitDy=0;entryX=1;entryY=0.5;entryDx=0;entryDy=0;" edge="1" parent="1" source="AjT2clhLz14M1lo0pNQs-69" target="AjT2clhLz14M1lo0pNQs-71">
          <mxGeometry relative="1" as="geometry" />
        </mxCell>
        <mxCell id="AjT2clhLz14M1lo0pNQs-77" style="edgeStyle=orthogonalEdgeStyle;rounded=0;orthogonalLoop=1;jettySize=auto;html=1;exitX=0.5;exitY=1;exitDx=0;exitDy=0;entryX=1;entryY=0.5;entryDx=0;entryDy=0;" edge="1" parent="1" source="AjT2clhLz14M1lo0pNQs-69" target="AjT2clhLz14M1lo0pNQs-72">
          <mxGeometry relative="1" as="geometry" />
        </mxCell>
        <mxCell id="AjT2clhLz14M1lo0pNQs-78" style="edgeStyle=orthogonalEdgeStyle;rounded=0;orthogonalLoop=1;jettySize=auto;html=1;exitX=0.5;exitY=1;exitDx=0;exitDy=0;entryX=1;entryY=0.5;entryDx=0;entryDy=0;" edge="1" parent="1" source="AjT2clhLz14M1lo0pNQs-69" target="AjT2clhLz14M1lo0pNQs-73">
          <mxGeometry relative="1" as="geometry" />
        </mxCell>
        <mxCell id="AjT2clhLz14M1lo0pNQs-69" value="Home Screen" style="rounded=1;whiteSpace=wrap;html=1;" vertex="1" parent="1">
          <mxGeometry x="1380" y="190" width="120" height="60" as="geometry" />
        </mxCell>
        <mxCell id="AjT2clhLz14M1lo0pNQs-83" style="edgeStyle=orthogonalEdgeStyle;rounded=0;orthogonalLoop=1;jettySize=auto;html=1;exitX=0.5;exitY=1;exitDx=0;exitDy=0;entryX=0;entryY=0.5;entryDx=0;entryDy=0;" edge="1" parent="1" source="AjT2clhLz14M1lo0pNQs-70" target="AjT2clhLz14M1lo0pNQs-82">
          <mxGeometry relative="1" as="geometry" />
        </mxCell>
        <mxCell id="AjT2clhLz14M1lo0pNQs-85" style="edgeStyle=orthogonalEdgeStyle;rounded=0;orthogonalLoop=1;jettySize=auto;html=1;exitX=0.5;exitY=1;exitDx=0;exitDy=0;entryX=0;entryY=0.5;entryDx=0;entryDy=0;" edge="1" parent="1" source="AjT2clhLz14M1lo0pNQs-70" target="AjT2clhLz14M1lo0pNQs-84">
          <mxGeometry relative="1" as="geometry" />
        </mxCell>
        <mxCell id="AjT2clhLz14M1lo0pNQs-87" style="edgeStyle=orthogonalEdgeStyle;rounded=0;orthogonalLoop=1;jettySize=auto;html=1;exitX=0.5;exitY=1;exitDx=0;exitDy=0;entryX=0;entryY=0.5;entryDx=0;entryDy=0;" edge="1" parent="1" source="AjT2clhLz14M1lo0pNQs-70" target="AjT2clhLz14M1lo0pNQs-86">
          <mxGeometry relative="1" as="geometry" />
        </mxCell>
        <mxCell id="AjT2clhLz14M1lo0pNQs-70" value="Home Screen" style="rounded=1;whiteSpace=wrap;html=1;" vertex="1" parent="1">
          <mxGeometry x="1540" y="190" width="120" height="60" as="geometry" />
        </mxCell>
        <mxCell id="AjT2clhLz14M1lo0pNQs-71" value="My Cart Screen" style="rounded=1;whiteSpace=wrap;html=1;" vertex="1" parent="1">
          <mxGeometry x="1300" y="270" width="120" height="60" as="geometry" />
        </mxCell>
        <mxCell id="AjT2clhLz14M1lo0pNQs-72" value="Profile Screen" style="rounded=1;whiteSpace=wrap;html=1;" vertex="1" parent="1">
          <mxGeometry x="1300" y="350" width="120" height="60" as="geometry" />
        </mxCell>
        <mxCell id="AjT2clhLz14M1lo0pNQs-79" style="edgeStyle=orthogonalEdgeStyle;rounded=0;orthogonalLoop=1;jettySize=auto;html=1;exitX=0.5;exitY=1;exitDx=0;exitDy=0;entryX=1;entryY=0.5;entryDx=0;entryDy=0;" edge="1" parent="1" source="AjT2clhLz14M1lo0pNQs-73" target="AjT2clhLz14M1lo0pNQs-74">
          <mxGeometry relative="1" as="geometry" />
        </mxCell>
        <mxCell id="AjT2clhLz14M1lo0pNQs-73" value="Category Filtered Businesses Screen" style="rounded=1;whiteSpace=wrap;html=1;" vertex="1" parent="1">
          <mxGeometry x="1300" y="430" width="120" height="60" as="geometry" />
        </mxCell>
        <mxCell id="AjT2clhLz14M1lo0pNQs-80" style="edgeStyle=orthogonalEdgeStyle;rounded=0;orthogonalLoop=1;jettySize=auto;html=1;exitX=0.5;exitY=1;exitDx=0;exitDy=0;" edge="1" parent="1" source="AjT2clhLz14M1lo0pNQs-74" target="AjT2clhLz14M1lo0pNQs-75">
          <mxGeometry relative="1" as="geometry" />
        </mxCell>
        <mxCell id="AjT2clhLz14M1lo0pNQs-74" value="Business Details Screen" style="rounded=1;whiteSpace=wrap;html=1;" vertex="1" parent="1">
          <mxGeometry x="1215" y="520" width="120" height="60" as="geometry" />
        </mxCell>
        <mxCell id="AjT2clhLz14M1lo0pNQs-75" value="Product Details Screen" style="rounded=1;whiteSpace=wrap;html=1;" vertex="1" parent="1">
          <mxGeometry x="1215" y="600" width="120" height="60" as="geometry" />
        </mxCell>
        <mxCell id="AjT2clhLz14M1lo0pNQs-82" value="My Orders Screen" style="rounded=1;whiteSpace=wrap;html=1;" vertex="1" parent="1">
          <mxGeometry x="1620" y="270" width="120" height="60" as="geometry" />
        </mxCell>
        <mxCell id="AjT2clhLz14M1lo0pNQs-84" value="Add Products Screen" style="rounded=1;whiteSpace=wrap;html=1;" vertex="1" parent="1">
          <mxGeometry x="1620" y="350" width="120" height="60" as="geometry" />
        </mxCell>
        <mxCell id="AjT2clhLz14M1lo0pNQs-86" value="Product Details Screen" style="rounded=1;whiteSpace=wrap;html=1;" vertex="1" parent="1">
          <mxGeometry x="1620" y="430" width="120" height="60" as="geometry" />
        </mxCell>
      </root>
    </mxGraphModel>
  </diagram>
</mxfile>
